<?xml version="1.0" standalone="no"?>
<!DOCTYPE svg PUBLIC "-//W3C//DTD SVG 20010904//EN"
 "http://www.w3.org/TR/2001/REC-SVG-20010904/DTD/svg10.dtd">
<svg version="1.0" xmlns="http://www.w3.org/2000/svg"
 width="980.000000pt" height="864.000000pt" viewBox="0 0 980.000000 864.000000"
 preserveAspectRatio="xMidYMid meet">
<metadata>
Created by potrace 1.15, written by Peter Selinger 2001-2017
</metadata>
<g transform="translate(0.000000,864.000000) scale(0.100000,-0.100000)"
fill="#000000" stroke="none">
<path d="M4227 8633 c-4 -3 -7 -519 -7 -1145 l0 -1138 -1100 0 -1100 0 0 -365
0 -365 -240 0 -240 0 0 -2620 0 -2620 -770 0 -770 0 0 -190 0 -190 4900 0
4900 0 0 190 0 190 -770 0 -770 0 0 3765 0 3765 -765 0 -765 0 0 365 0 365
-1248 0 c-687 0 -1252 -3 -1255 -7z m2133 -548 l0 -175 -880 0 -880 0 0 175 0
175 880 0 880 0 0 -175z m1520 -4130 l0 -3575 -440 0 -440 0 0 730 0 730 -810
0 -810 0 0 -730 0 -730 -390 0 -390 0 0 3575 0 3575 1640 0 1640 0 0 -3575z
m-3720 1845 l0 -180 -880 0 -880 0 0 180 0 180 880 0 880 0 0 -180z m60 -2985
l0 -2435 -1150 0 -1150 0 0 2435 0 2435 1150 0 1150 0 0 -2435z m2410 -1895
l0 -540 -440 0 -440 0 0 540 0 540 440 0 440 0 0 -540z"/>
<path d="M4980 6355 l0 -185 1260 0 1260 0 0 185 0 185 -1260 0 -1260 0 0
-185z"/>
<path d="M4980 5145 l0 -185 1260 0 1260 0 0 185 0 185 -1260 0 -1260 0 0
-185z"/>
<path d="M4980 3935 l0 -185 1260 0 1260 0 0 185 0 185 -1260 0 -1260 0 0
-185z"/>
<path d="M2280 4355 l0 -185 790 0 790 0 0 185 0 185 -790 0 -790 0 0 -185z"/>
<path d="M2280 3345 l0 -185 790 0 790 0 0 185 0 185 -790 0 -790 0 0 -185z"/>
<path d="M2280 2305 l0 -185 790 0 790 0 0 185 0 185 -790 0 -790 0 0 -185z"/>
<path d="M2280 1265 l0 -185 790 0 790 0 0 185 0 185 -790 0 -790 0 0 -185z"/>
</g>
</svg>
