<?xml version="1.0" standalone="no"?>
<!DOCTYPE svg PUBLIC "-//W3C//DTD SVG 20010904//EN"
 "http://www.w3.org/TR/2001/REC-SVG-20010904/DTD/svg10.dtd">
<svg version="1.0" xmlns="http://www.w3.org/2000/svg"
 width="170.000000pt" height="170.000000pt" viewBox="0 0 170.000000 170.000000"
 preserveAspectRatio="xMidYMid meet">
<metadata>
Created by potrace 1.15, written by Peter Selinger 2001-2017
</metadata>
<g transform="translate(0.000000,170.000000) scale(0.100000,-0.100000)"
fill="#000000" stroke="none">
<path d="M758 1506 c-26 -7 -54 -18 -63 -26 -8 -7 -30 -20 -47 -29 -57 -28
-78 -73 -78 -162 0 -43 6 -102 12 -131 l12 -53 6 97 c5 82 10 103 33 137 36
55 68 55 121 1 22 -22 44 -40 50 -41 6 0 20 -3 31 -5 11 -3 45 -7 75 -10 115
-12 155 -51 148 -139 -6 -65 7 -72 23 -12 35 125 4 255 -79 327 -67 59 -142
74 -244 46z"/>
<path d="M964 925 c-4 -9 -26 -27 -50 -41 -34 -20 -55 -25 -94 -23 -40 2 -53
-1 -64 -17 -14 -19 -15 -18 -43 6 -15 13 -4 -1 26 -32 l54 -57 -31 -48 -31
-48 -16 38 c-8 20 -25 52 -36 69 l-21 33 6 -75 c6 -81 64 -302 115 -440 17
-46 25 -78 17 -70 -38 41 -246 302 -246 310 0 4 15 20 33 35 54 46 54 53 -2
77 -28 11 -51 27 -51 34 0 8 29 49 65 91 35 43 63 79 61 80 -2 2 -25 -10 -52
-26 -27 -17 -93 -46 -147 -65 -115 -41 -149 -63 -172 -112 -26 -55 -14 -109
44 -191 127 -181 312 -283 511 -283 155 0 254 44 381 170 134 132 184 242 144
316 -19 36 -56 57 -195 111 -52 20 -112 47 -132 60 -21 13 -38 20 -38 16 0 -5
29 -43 65 -85 36 -43 65 -82 65 -87 0 -5 -22 -18 -50 -30 -27 -12 -50 -28 -50
-35 0 -7 16 -24 35 -37 19 -13 35 -32 35 -41 0 -16 -240 -321 -247 -314 -2 2
5 25 15 52 55 138 133 448 131 518 -1 30 -1 29 -24 -19 -13 -27 -24 -59 -24
-70 -1 -16 -7 -13 -41 20 l-39 38 53 61 c34 39 55 73 58 94 5 33 -8 44 -18 17z"/>
</g>
</svg>
